<?xml version="1.0"?>
<svg xmlns="http://www.w3.org/2000/svg" viewBox="0 0 200 200" width="100" height="100" fill="context-fill #0b0b0b">
<use href="#mag" width="200" height="200"></use>
<use href="#bug" x="40" y="35" width="100" height="100"></use>
<defs>
<!-- Licensed by CC BY 3.0 https://www.onlinewebfonts.com/icon/535949 -->
<svg id="mag" xmlns="http://www.w3.org/2000/svg" viewBox="0 0 1000 1000">
<g transform="translate(0.000000,511.000000) scale(0.100000,-0.100000)"><path d="M3945,4991.6C2110.6,4760.7,657.9,3384.9,337.8,1575.1c-67.7-387.8-67.7-1034.2,0-1415.8c301.7-1686.7,1572.8-2997.9,3259.5-3361.1c418.6-89.2,1200.4-95.4,1591.3-12.3c695.6,147.7,1197.3,375.5,1834.4,834.1c30.8,21.6,61.6,9.2,110.8-37l67.7-70.8l-89.3-92.3l-86.2-92.3L8097.1-3725c587.9-581.7,1086.5-1058.8,1105-1064.9c27.7-6.2,510.9,486.3,510.9,523.2c0,6.2-486.3,486.3-1080.3,1068L7555.4-2139.9l-92.3-89.2l-95.4-89.3l-58.5,73.9l-58.5,70.8l230.8,246.2C7989.4-1388.9,8328-711.7,8503.4,100.8c77,360.1,77,1172.7,0,1532.8c-190.8,895.7-535.6,1535.9-1157.3,2160.7c-624.8,621.7-1258.8,963.4-2105.3,1138.8C4886.9,5003.9,4271.3,5031.6,3945,4991.6z M5123.9,4696.1c1200.4-215.5,2219.2-978.8,2773.2-2074.5c166.2-329.3,313.9-766.4,372.4-1108c52.3-295.5,52.3-997.2,0-1292.7c-249.3-1425.1-1277.3-2619.3-2634.7-3062.5c-412.4-132.3-732.5-181.6-1231.2-178.5c-1049.6,3.1-1963.7,378.6-2702.4,1111.1C1153.4-1370.4,842.5-825.6,642.5-56.2c-104.7,394-132.3,1141.9-58.5,1560.5c147.8,846.4,529.4,1566.6,1148.1,2166.8C2636.9,4545.3,3874.3,4920.8,5123.9,4696.1z"/></g>
</svg>
<!-- Licensed by CC BY 3.0 https://www.onlinewebfonts.com/icon/295999 -->
<svg id="bug" xmlns="http://www.w3.org/2000/svg" viewBox="0 0 1000 1000">
<path d="M990,573v-61.3H805c-5.6-69.5-30.4-133.1-68.6-184h155l67-268.2L899,44.7l-55.5,221.8H676.4c-0.9-0.7-1.7-1.3-2.6-2c6.4-18.7,9.9-38.7,9.9-59.5c0-101.2-82.3-183.2-183.8-183.2s-183.8,82-183.8,183.3c0,20.8,3.5,40.9,9.9,59.5c-0.9,0.6-1.7,1.3-2.6,2H156.4L101,44.7L41.5,59.5l67,268.2h155c-38.2,50.9-63,114.4-68.6,184H10V573h185.1c3.6,43.7,14.9,85,32.2,122.3H108.6l-67,268.2l59.4,14.9l55.5-221.8h107.5C320.1,831.2,405,878.7,500,878.7c95,0,179.9-47.6,236.1-122.3h107.5L899,978.3l59.4-14.9l-67-268.2H772.7c17.4-37.3,28.5-78.6,32.2-122.3L990,573z"/>
</svg>
</defs>
</svg>
